<svg xmlns="http://www.w3.org/2000/svg" width="192" height="192" viewBox="0 0 108 108">
  <defs>
    <clipPath id="iconMask">
      <rect x="10" y="10" width="88" height="88" rx="20" ry="20"/>
    </clipPath>
  </defs>
  <g clip-path="url(#iconMask)">
    <!-- Background -->
    <rect x="0" y="0" width="108" height="108" fill="#111114"/>
    <!-- Gauge segment 1: GitHub Copilot green -->
    <path d="M33.2,66 A24,24,0,0,1,31.2,46.6 L37.8,48.8 A17,17,0,0,0,39.3,62.5 Z" fill="#34D399"/>
    <!-- Gauge segment 2: OpenAI blue -->
    <path d="M31.2,46.6 A24,24,0,0,1,44.2,32.1 L47.1,38.5 A17,17,0,0,0,37.8,48.8 Z" fill="#60A5FA"/>
    <!-- Gauge segment 3: Claude violet -->
    <path d="M44.2,32.1 A24,24,0,0,1,63.8,32.1 L60.9,38.5 A17,17,0,0,0,47.1,38.5 Z" fill="#A78BFA"/>
    <!-- Gauge segment 4: Claude API purple -->
    <path d="M63.8,32.1 A24,24,0,0,1,76.8,46.6 L70.2,48.8 A17,17,0,0,0,60.9,38.5 Z" fill="#C084FC"/>
    <!-- Gauge segment 5: OpenRouter indigo -->
    <path d="M76.8,46.6 A24,24,0,0,1,74.8,66 L68.7,62.5 A17,17,0,0,0,70.2,48.8 Z" fill="#818CF8"/>
    <!-- Segment separators -->
    <line x1="31.2" y1="46.6" x2="37.8" y2="48.8" stroke="#111114" stroke-width="1.2"/>
    <line x1="44.2" y1="32.1" x2="47.1" y2="38.5" stroke="#111114" stroke-width="1.2"/>
    <line x1="63.8" y1="32.1" x2="60.9" y2="38.5" stroke="#111114" stroke-width="1.2"/>
    <line x1="76.8" y1="46.6" x2="70.2" y2="48.8" stroke="#111114" stroke-width="1.2"/>
    <!-- Needle -->
    <line x1="54" y1="54" x2="64" y2="36.7" stroke="#FAFAFA" stroke-width="2.5" stroke-linecap="round"/>
    <!-- Center pivot dot -->
    <circle cx="54" cy="54" r="3.5" fill="#FAFAFA"/>
    <!-- AI sparkle -->
    <path d="M72,32.5 L73.2,35 L75.8,35.8 L73.2,36.6 L72,39.1 L70.8,36.6 L68.2,35.8 L70.8,35 Z" fill="#60A5FA"/>
  </g>
</svg>
